<svg xmlns="http://www.w3.org/2000/svg" width="55" height="55" viewBox="0 0 55 55"><defs><style>.a{fill:#161616;opacity:0.8;}.b,.c,.d{fill:none;stroke:#B2A89F;}.b,.d{stroke-linejoin:round;}.b{stroke-miterlimit:10;}.e{fill:#B2A89F;}</style></defs><path class="a" d="M0,0H55V55H0Z"/><g transform="translate(14.559 13.869)"><path class="b" d="M18.356,18.356V0H0" transform="translate(0.434 13.049) rotate(-45)"/><path class="c" d="M-.5-.08V26.747" transform="translate(13.914 0.514)"/><path class="d" d="M0,0V26.829" transform="translate(26.829 0) rotate(90)"/></g><path class="e" d="M12.173,3.175a.77.77,0,0,0,.8-.77c0-.56-.545-.9-1.4-.9H9.063V5h2.7c.86,0,1.405-.355,1.405-.96C13.173,3.5,12.722,3.21,12.173,3.175Zm-2.1-.965H11.4c.34,0,.565.075.565.34s-.225.345-.565.345H10.073Zm1.48,2.08h-1.48V3.555h1.48c.36,0,.575.08.575.365S11.913,4.29,11.552,4.29Zm3.655-2.17a3.6,3.6,0,0,0-1.425.285l.225.625a2.134,2.134,0,0,1,1-.215c.6,0,.915.2.915.62v.18a1.485,1.485,0,0,0-1.085-.395c-.585,0-1.33.23-1.33.94s.745.94,1.33.94a1.5,1.5,0,0,0,1.085-.39v.005a.554.554,0,0,0,.1.285h1a1.07,1.07,0,0,1-.12-.525V3.445C16.892,2.59,16.263,2.12,15.208,2.12Zm.73,2.065a.982.982,0,0,1-.825.34c-.28,0-.655-.07-.655-.365s.375-.365.655-.365a.992.992,0,0,1,.825.335Zm4.825.125-.845-.345a.78.78,0,0,1-.74.395c-.5,0-.86-.26-.86-.745s.355-.745.86-.745a.741.741,0,0,1,.72.38l.845-.34a1.669,1.669,0,0,0-1.575-.8c-1.1,0-1.8.575-1.8,1.5s.69,1.5,1.8,1.5A1.69,1.69,0,0,0,20.763,4.31ZM23.568,5h1.06L23.4,3.35l1.155-1.12h-1.1l-1.27,1.215V1.3H21.2V5h.985V4.37l.55-.49Zm6.19-3.5h-3.92v.815h1.445V5H28.3V2.315h1.455Zm1.65,3.615c1.11,0,1.81-.575,1.81-1.5s-.7-1.495-1.81-1.495-1.815.565-1.815,1.495S30.292,5.115,31.407,5.115Zm0-.76c-.5,0-.87-.255-.87-.74s.365-.74.87-.74.87.25.87.74S31.912,4.355,31.407,4.355ZM38.568,1.5h-3.92v.815h1.445V5h1.02V2.315h1.455Zm1.65,3.615c1.11,0,1.81-.575,1.81-1.5s-.7-1.495-1.81-1.495S38.4,2.685,38.4,3.615,39.1,5.115,40.217,5.115Zm0-.76c-.505,0-.87-.255-.87-.74s.365-.74.87-.74.87.25.87.74S40.722,4.355,40.217,4.355Zm4.47.745a1.39,1.39,0,0,0,1.47-1.485,1.488,1.488,0,0,0-2.61-.98v-.4h-.985V6h.985V4.59A1.389,1.389,0,0,0,44.688,5.1Zm-.275-2.22c.52,0,.81.27.81.735s-.29.73-.81.73a1.044,1.044,0,0,1-.86-.4V3.275A1.044,1.044,0,0,1,44.413,2.88Z" transform="translate(0 46.821)"/></svg>